
                <svg width="10000" height="400" viewBox="0 0 10000 400" xmlns="http://www.w3.org/2000/svg">
                    <path d="M 0 400 L 0 30.199741 L 5 396.87494 L 10 396.87494 L 15 396.87494 L 20 396.87494 L 25 396.87494 L 30 396.87494 L 35 396.87494 L 40 396.87494 L 44.999996 396.87494 L 50 396.87494 L 55 396.87494 L 60 396.87494 L 65 396.87494 L 70 396.87494 L 75 396.87494 L 80 396.87494 L 85.00001 396.87494 L 89.99999 396.87494 L 95 396.87494 L 100 396.87494 L 105 396.87494 L 110 396.87494 L 115 396.87494 L 120 396.87494 L 125 396.87494 L 130 396.87494 L 135 396.87494 L 140 396.87494 L 145 396.87494 L 150 396.87494 L 155 396.87494 L 160 396.87494 L 165 396.87494 L 170.00002 396.87494 L 175 396.87494 L 179.99998 396.87494 L 185 396.87494 L 190 396.87494 L 195 396.87494 L 200 396.87494 L 205 396.87494 L 210 396.87494 L 215 396.87494 L 220 396.87494 L 225.00002 396.87494 L 230 396.87494 L 234.99998 396.87494 L 240 396.87494 L 245 396.87494 L 250 396.87494 L 255 396.87494 L 260 396.87494 L 265 396.87494 L 270 396.87494 L 275 396.87494 L 280 395.5805 L 285 395.5805 L 290 394.58725 L 295 394.58725 L 300 393.7499 L 305 394.58725 L 310 393.7499 L 315 393.7499 L 320 393.7499 L 325 393.7499 L 330 393.01218 L 335 393.01218 L 340.00003 393.01218 L 345 392.34525 L 350 392.34525 L 355 392.34525 L 359.99997 392.34525 L 365 392.34525 L 370 391.7319 L 375 391.7319 L 380 391.7319 L 385 391.7319 L 390 391.7319 L 395.00003 391.7319 L 400 391.7319 L 405 391.7319 L 410 391.7319 L 414.99997 392.34525 L 420 392.34525 L 425 392.34525 L 430 392.34525 L 435 392.34525 L 440 392.34525 L 445 392.34525 L 450.00003 392.34525 L 455 392.34525 L 460 393.01218 L 465 393.01218 L 469.99997 393.37076 L 475 393.7499 L 480 393.7499 L 485 394.58725 L 490 395.5805 L 495 395.5805 L 500 396.1726 L 505.00003 396.87494 L 510 396.87494 L 515 396.1726 L 520 397.79025 L 525 396.87494 L 530 396.87494 L 535 396.1726 L 540 395.05887 L 545 395.05887 L 550 394.15356 L 555 393.37076 L 560 392.6711 L 565 392.03268 L 570 391.4417 L 575 390.889 L 580 390.36795 L 585 389.40244 L 590 388.95126 L 595 388.51782 L 600 388.10016 L 605 387.89676 L 610 387.306 L 615 386.74155 L 620 386.55865 L 625 386.20016 L 630 385.50977 L 635 385.17657 L 640 384.5318 L 644.99994 384.5318 L 650 384.2193 L 655 383.9128 L 660 383.9128 L 665 383.9128 L 670 383.61212 L 675 383.3168 L 680.00006 383.3168 L 685 383.02664 L 690 383.02664 L 695 383.3168 L 700 383.3168 L 705 383.9128 L 710 383.76178 L 715.00006 383.9128 L 719.99994 384.2193 L 725 384.2193 L 730 383.9128 L 735 383.61212 L 740 383.9128 L 745 383.61212 L 750 383.9128 L 754.99994 383.61212 L 760 383.61212 L 765 383.61212 L 770 383.3168 L 775 383.3168 L 780 382.74136 L 785 382.46072 L 790.00006 382.46072 L 795 382.18448 L 800 381.91248 L 805 381.38037 L 810 381.11993 L 815 380.86307 L 820 380.86307 L 825.00006 380.6096 L 829.99994 380.35938 L 835 380.1123 L 840 379.8683 L 845 379.62717 L 850 379.03656 L 855 378.9204 L 860 378.69 L 864.99994 378.4621 L 870 378.4621 L 875 378.4621 L 880 378.4621 L 885 378.4621 L 890 378.4621 L 895 378.69 L 900.00006 378.9204 L 905 378.9204 L 910 378.9204 L 915 379.38892 L 920 379.38892 L 925 379.15332 L 930 379.15332 L 935.00006 378.9204 L 939.99994 378.69 L 945 378.4621 L 950 378.4621 L 955 378.01334 L 960 377.79236 L 965 377.57355 L 970 377.14224 L 974.99994 376.92963 L 980 376.71893 L 985 376.71893 L 990 376.51013 L 995 376.30316 L 1000 376.30316 L 1005 376.30316 L 1010.00006 376.30316 L 1015 376.30316 L 1020 376.20035 L 1025 376.098 L 1030 375.99606 L 1035 375.89453 L 1040 375.69284 L 1045 375.69284 L 1050 375.89453 L 1055 376.098 L 1060 376.30316 L 1065 376.71893 L 1070 376.92963 L 1075 377.35687 L 1080 377.57355 L 1085 377.79236 L 1090 378.12466 L 1095 378.34903 L 1100 378.69 L 1105 378.9204 L 1110 378.9204 L 1115 378.4621 L 1120 378.57574 L 1125 378.4621 L 1130 378.4621 L 1135 378.4621 L 1140 378.4621 L 1145 378.23654 L 1150 378.23654 L 1155 378.23654 L 1160 378.4621 L 1165 378.4621 L 1170 378.9204 L 1175 378.9204 L 1180 378.4621 L 1185 378.4621 L 1190 378.4621 L 1195 378.23654 L 1200 378.69 L 1205 378.9204 L 1210 379.15332 L 1215 379.38892 L 1220 379.8683 L 1225 380.1123 L 1230 380.1123 L 1235 380.35938 L 1240 380.6096 L 1245 380.86307 L 1250 381.11993 L 1254.9999 381.6445 L 1260 381.6445 L 1265 381.91248 L 1270 382.18448 L 1275 382.74136 L 1280 383.02664 L 1285 383.3168 L 1289.9999 383.61212 L 1295 384.2193 L 1300 384.5318 L 1305 384.5318 L 1310 384.2193 L 1315 383.61212 L 1320 383.61212 L 1324.9999 383.3168 L 1330 383.3168 L 1335 383.02664 L 1340 382.74136 L 1345 382.46072 L 1350 382.18448 L 1355 381.6445 L 1360.0001 381.11993 L 1365 380.6096 L 1370 380.1123 L 1375 379.8683 L 1380 379.74738 L 1385 379.5077 L 1390 379.38892 L 1395.0001 379.27078 L 1400 379.15332 L 1405 379.15332 L 1410 379.38892 L 1415 379.62717 L 1420 380.1123 L 1425 380.73593 L 1430.0001 381.6445 L 1435 382.18448 L 1439.9999 383.02664 L 1445 383.3168 L 1450 384.2193 L 1455 385.17657 L 1460 385.85074 L 1465.0001 386.55865 L 1470 387.306 L 1474.9999 388.95126 L 1480 390.11774 L 1485 390.36795 L 1490 390.36795 L 1495 390.36795 L 1500 390.889 L 1505 391.4417 L 1509.9999 392.03268 L 1515 392.6711 L 1520 394.15356 L 1525 395.5805 L 1530 395.5805 L 1535 395.5805 L 1540 394.58725 L 1544.9999 394.58725 L 1550 395.5805 L 1555 394.58725 L 1560 394.58725 L 1565 393.7499 L 1570 391.7319 L 1575 391.16104 L 1580.0001 389.8737 L 1585 388.30713 L 1590 387.1151 L 1595 386.74155 L 1600 386.02435 L 1605 385.34222 L 1610 385.0128 L 1615.0001 384.0653 L 1620 383.76178 L 1625 383.1711 L 1630 382.32208 L 1635 381.778 L 1640 380.9911 L 1645 380.23544 L 1650.0001 379.62717 L 1655 379.03656 L 1659.9999 378.23654 L 1665 377.03568 L 1670 375.7935 L 1675 375.19568 L 1680 374.42038 L 1685.0001 373.66788 L 1690 373.29956 L 1694.9999 373.20828 L 1700 372.75647 L 1705 372.40033 L 1710 371.87457 L 1715 371.70148 L 1720 371.35846 L 1725 371.0195 L 1729.9999 370.68445 L 1735 370.3532 L 1740 370.51834 L 1745 370.18896 L 1750 370.18896 L 1755 370.02557 L 1760 369.70154 L 1764.9999 370.02557 L 1770 370.18896 L 1775 370.18896 L 1780 370.43567 L 1785 370.51834 L 1790 370.3532 L 1795 370.51834 L 1800.0001 370.3532 L 1805 370.18896 L 1810 370.02557 L 1815 369.70154 L 1820 369.46075 L 1825 369.06363 L 1830 368.59366 L 1835.0001 368.43857 L 1840 367.82568 L 1845 367.82568 L 1850 367.37354 L 1855 367.4485 L 1860 367.2242 L 1865 367.0756 L 1870.0001 367.0756 L 1875 366.78027 L 1879.9999 366.19745 L 1885 365.90976 L 1890 365.55353 L 1895 364.7825 L 1900 364.36896 L 1905 363.9602 L 1910 363.42224 L 1914.9999 363.15622 L 1920 362.76077 L 1925 362.62985 L 1930 362.2399 L 1935 362.1108 L 1940 361.5988 L 1945 361.21918 L 1949.9999 360.84326 L 1955 360.47092 L 1960 359.97986 L 1965 359.61548 L 1970 359.25436 L 1975 359.3744 L 1980 359.1347 L 1985.0001 359.1347 L 1990 359.01538 L 1995 359.01538 L 2000 358.89642 L 2005 358.65952 L 2010 358.1897 L 2015 357.9568 L 2020.0001 357.72516 L 2025 357.49475 L 2030 357.38004 L 2035 357.49475 L 2040 357.72516 L 2045 357.8408 L 2050 357.8408 L 2055 357.72516 L 2060 357.72516 L 2065 357.72516 L 2070 357.72516 L 2075 357.89877 L 2080 357.72516 L 2085 357.8408 L 2090 358.0731 L 2095 358.0731 L 2100 358.1897 L 2105 358.1897 L 2110 358.30667 L 2115 358.54156 L 2120 358.77777 L 2125 358.77777 L 2130 358.89642 L 2135 359.01538 L 2140 359.1347 L 2145 359.73657 L 2150 360.10205 L 2155 360.59467 L 2160 360.84326 L 2165 361.21918 L 2170 361.5988 L 2175 361.98215 L 2180 362.1108 L 2185 362.49942 L 2190 362.62985 L 2195 362.8921 L 2200 363.42224 L 2205 363.69025 L 2210 364.09592 L 2215 364.2322 L 2220 364.5063 L 2225 364.64413 L 2230 365.27115 L 2235 365.62448 L 2240 366.19745 L 2245 366.4876 L 2250 366.4876 L 2255 366.9276 L 2260 367.67426 L 2265 367.97778 L 2270 368.7495 L 2275 369.22186 L 2280 369.70154 L 2285 369.86313 L 2290 369.86313 L 2295 370.18896 L 2300 370.51834 L 2305 370.51834 L 2310 371.10385 L 2315 371.70148 L 2320 372.40033 L 2325 372.75647 L 2330 373.29956 L 2335 373.4831 L 2340 373.66788 L 2345 374.0414 L 2350 374.612 L 2355 374.99963 L 2360 375.7935 L 2365 376.4064 L 2370 377.35687 L 2375 377.46497 L 2380 378.12466 L 2385 378.8049 L 2390 380.23544 L 2395 381.778 L 2400 383.1711 L 2405 384.37476 L 2410 386.02435 L 2415 387.1151 L 2420 388.73248 L 2425 390.11774 L 2430 393.01218 L 2435 392.6711 L 2440 389.8737 L 2445 387.6967 L 2450 385.50977 L 2455 383.3168 L 2460 381.91248 L 2465 380.86307 L 2470 380.1123 L 2475 379.38892 L 2480 378.57574 L 2485 377.03568 L 2490 376.30316 L 2495 375.29434 L 2500 374.13565 L 2505 372.84622 L 2509.9998 371.44385 L 2515 370.27097 L 2520 369.22186 L 2525 368.43857 L 2530 367.4485 L 2535.0002 367.0015 L 2540 366.56052 L 2545 366.26974 L 2550 365.69556 L 2555 365.27115 L 2560 365.13086 L 2565 365.27115 L 2570 365.41208 L 2575 365.55353 L 2579.9998 365.41208 L 2585 365.13086 L 2590 364.9911 L 2595 364.8519 L 2600 364.9911 L 2605.0002 364.9911 L 2610 365.13086 L 2615 364.92142 L 2620 364.71323 L 2625 364.57513 L 2630 364.43756 L 2635 364.3005 L 2640 364.43756 L 2645 364.3005 L 2649.9998 363.82495 L 2655 363.556 L 2660 363.09003 L 2665 362.4344 L 2670 361.85394 L 2675.0002 361.2822 L 2680 360.59467 L 2685 358.95587 L 2690 336.52997 L 2694.9998 339.24213 L 2700 340.9953 L 2705 343.05893 L 2710 342.08115 L 2715 342.25 L 2720.0002 349.17593 L 2725 354.01825 L 2730 357.6098 L 2735 350.83633 L 2740 349.7557 L 2745.0002 349.36844 L 2750 350.6381 L 2755 352.24707 L 2760 352.7611 L 2764.9998 353.4903 L 2770 356.52927 L 2775 360.71875 L 2780 358.48273 L 2785 351.63742 L 2790.0002 333.01163 L 2795 331.927 L 2800 338.2457 L 2805 354.71375 L 2810 357.15152 L 2815 352.5548 L 2820 351.03537 L 2825 348.88852 L 2830 351.33548 L 2834.9998 347.19687 L 2840 342.25 L 2845 345.55777 L 2850 354.01825 L 2855 364.7825 L 2860.0002 368.28424 L 2865 361.98215 L 2870 350.53928 L 2875 345.64752 L 2879.9998 347.15067 L 2885 348.31848 L 2890 356.9809 L 2895 368.90616 L 2900 385.17657 L 2904.9998 368.13065 L 2910 352.6063 L 2915 350.73712 L 2920 346.7365 L 2925 356.52927 L 2930.0002 358.48273 L 2935 363.09003 L 2940 370.27097 L 2945 369.62106 L 2949.9998 361.03076 L 2955 353.3331 L 2960 351.33548 L 2965 358.30667 L 2970 358.13135 L 2975.0002 360.84326 L 2980 365.98145 L 2985 364.71323 L 2990 363.22256 L 2995 354.98413 L 3000 352.34943 L 3005 356.7545 L 3010 361.53525 L 3015 362.04645 L 3019.9998 372.1362 L 3025 363.35556 L 3030 361.78998 L 3035 354.1778 L 3040 360.0409 L 3045.0002 362.49942 L 3050 364.43756 L 3055 362.95795 L 3060 363.556 L 3065 368.28424 L 3070 361.03076 L 3075 361.47183 L 3080 366.63364 L 3085 365.55353 L 3089.9998 369.3809 L 3095 373.66788 L 3100 374.51602 L 3105 358.7186 L 3110 363.89252 L 3115.0002 365.55353 L 3120 360.84326 L 3125 367.67426 L 3130 364.3005 L 3134.9998 372.9363 L 3140 373.76077 L 3145 370.51834 L 3150 372.84622 L 3155 364.9911 L 3160.0002 365.55353 L 3165 375.09747 L 3170 366.19745 L 3175 360.4092 L 3180 373.4831 L 3185 372.48892 L 3190 370.27097 L 3195 377.35687 L 3200 370.02557 L 3204.9998 366.26974 L 3210 366.63364 L 3215 366.1253 L 3220 372.57782 L 3225 369.62106 L 3230.0002 374.2302 L 3235 371.0195 L 3240 369.3809 L 3245 365.7668 L 3250 365.20096 L 3255 367.0756 L 3260 372.667 L 3265 355.80515 L 3270 367.90164 L 3274.9998 354.2311 L 3280 353.43784 L 3285 354.98413 L 3290 358.77777 L 3295 358.77777 L 3300.0002 353.96515 L 3305 360.59467 L 3310 355.91577 L 3315 356.58545 L 3319.9998 362.49942 L 3325 355.14713 L 3330 353.54282 L 3335 354.82172 L 3340 361.4085 L 3345.0002 357.49475 L 3350 358.65952 L 3355 353.3331 L 3360 353.96515 L 3365 360.0409 L 3370.0002 362.49942 L 3375 365.34155 L 3380 360.22464 L 3385 368.28424 L 3389.9998 360.47092 L 3395 353.96515 L 3400 351.4862 L 3405 353.4903 L 3410 357.9568 L 3415.0002 355.6948 L 3420 352.86456 L 3425 350.68756 L 3430 358.30667 L 3435 357.55225 L 3440 349.032 L 3445 356.24933 L 3450 347.5215 L 3455 351.33548 L 3459.9998 352.29822 L 3465 362.49942 L 3470 357.6098 L 3475 349.70712 L 3480 344.27243 L 3485.0002 351.1852 L 3490 346.4166 L 3495 347.05835 L 3500 346.59915 L 3504.9998 354.01825 L 3510 354.07138 L 3515 348.6502 L 3520 344.44794 L 3525 347.89505 L 3529.9998 359.01538 L 3535 355.6948 L 3540 358.36523 L 3545 354.39142 L 3550 348.6027 L 3555.0002 352.4007 L 3560 346.9662 L 3565 340.7888 L 3570 343.23068 L 3574.9998 351.9921 L 3580 352.4007 L 3585 346.9662 L 3590 341.87076 L 3595 347.89505 L 3600.0002 344.3601 L 3605 339.6453 L 3610 340.45984 L 3615 338.00894 L 3620 335.4241 L 3625 341.28568 L 3630 338.2457 L 3635 338.8416 L 3640 345.4234 L 3644.9998 348.17694 L 3650 347.5215 L 3655 351.78912 L 3660 355.25613 L 3665 357.0377 L 3670.0002 352.8128 L 3675 359.1945 L 3680 354.82172 L 3685 356.4731 L 3690 358.0731 L 3695 359.79727 L 3700 359.1347 L 3705 361.5988 L 3710 365.98145 L 3714.9998 362.95795 L 3720 348.4604 L 3725 349.7557 L 3730 355.14713 L 3735 362.62985 L 3740.0002 365.98145 L 3745 364.36896 L 3750 360.96817 L 3755 366.56052 L 3759.9998 362.62985 L 3765 362.2399 L 3770 365.48273 L 3775 358.0731 L 3780 356.81097 L 3785.0002 361.5988 L 3790 355.80515 L 3795 364.5063 L 3800 362.8264 L 3805 364.09592 L 3810 359.73657 L 3815 351.78912 L 3820 356.36108 L 3825 356.69806 L 3829.9998 354.82172 L 3835 365.34155 L 3840 352.19595 L 3845 356.58545 L 3850 351.68793 L 3855.0002 349.1279 L 3860 364.5063 L 3865 352.1449 L 3870 357.9568 L 3875 358.42395 L 3880 359.97986 L 3885 358.77777 L 3890 352.6063 L 3895 362.62985 L 3899.9998 366.4876 L 3905 360.90567 L 3910 368.20734 L 3915 359.49475 L 3920 357.43735 L 3925.0002 363.9602 L 3930 358.42395 L 3935 363.02396 L 3940 367.52356 L 3944.9998 366.34222 L 3950 367.97778 L 3955 362.49942 L 3960 356.9242 L 3965 373.29956 L 3970.0002 356.08224 L 3975 356.36108 L 3980 360.78094 L 3985 360.84326 L 3990 356.58545 L 3995.0002 368.28424 L 4000 380.48407 L 4005 358.77777 L 4010 354.44498 L 4014.9998 354.33792 L 4020 358.36523 L 4025 368.67148 L 4030 364.36896 L 4035 377.57355 L 4040.0002 362.1108 L 4045 352.6063 L 4050 350.73712 L 4055 358.54156 L 4060 373.76077 L 4065 374.80505 L 4070 367.74988 L 4075 355.63974 L 4080 343.79257 L 4084.9998 335.3485 L 4090 345.28934 L 4095 359.01538 L 4100 339.72626 L 4105 337.10965 L 4110 342.88766 L 4115 318.47876 L 4120 311.1145 L 4125 325.3578 L 4130 325.03143 L 4135 315.62372 L 4140 316.78918 L 4145 313.42432 L 4150 294.7411 L 4155 295.29926 L 4160 332.90237 L 4165 309.1046 L 4170 303.98422 L 4175 310.7855 L 4180 285.62582 L 4185 282.36365 L 4190 292.4012 L 4195 313.1709 L 4200 292.1519 L 4205 293.77136 L 4210 295.4159 L 4215 272.58005 L 4220 280.8377 L 4225 307.82434 L 4230 287.86783 L 4235 285.5618 L 4240 302.97244 L 4245 274.5886 L 4250 273.58032 L 4255 292.69656 L 4260 292.0388 L 4265 284.54227 L 4270 290.4449 L 4275 274.08347 L 4280 270.67813 L 4285 270.75366 L 4290 302.34537 L 4295 280.67392 L 4300 280.79672 L 4305 302.97244 L 4310 264.33908 L 4315 269.382 L 4320 300.63528 L 4325 280.9607 L 4330 278.48425 L 4335 293.10693 L 4340 267.13953 L 4345 265.33255 L 4350 272.7718 L 4355 297.25293 L 4360 276.21497 L 4365 281.0633 L 4370 274.62753 L 4375 264.80783 L 4380 260.0865 L 4385 305.85876 L 4390 278.4039 L 4395 277.04614 L 4400 298.06403 L 4405 262.37366 L 4410 259.80756 L 4415 276.33337 L 4420 290.0667 L 4425 275.11536 L 4430 281.7014 L 4435 268.43213 L 4440 261.94855 L 4445 261.6659 L 4450 308.06302 L 4455 280.79672 L 4460 279.1693 L 4465 303.57825 L 4470 267.41547 L 4475 259.96436 L 4480 290.8244 L 4485 292.4693 L 4490 282.3221 L 4495 284.45773 L 4500 271.62558 L 4505 263.94373 L 4510 264.59128 L 4515 305.10965 L 4520 281.7014 L 4525 281.8046 L 4530 309.13147 L 4535 271.62558 L 4540 268.32086 L 4545 296.82608 L 4550 293.51883 L 4555 284.1412 L 4560 296.40103 L 4565 282.55057 L 4570 271.30264 L 4575 277.16537 L 4580 313.08658 L 4585 284.45773 L 4590 285.77533 L 4595 306.79706 L 4600 276.88742 L 4605 277.14548 L 4610 302.34537 L 4615 294.0706 L 4620 287.97675 L 4625 299.196 L 4630 291.8354 L 4635 278.023 L 4640 295.04303 L 4645 315.8555 L 4650 292.01614 L 4655 296.92078 L 4660 309.13147 L 4665 280.77628 L 4670 281.9286 L 4675 306.6662 L 4680 299.51138 L 4685 293.9784 L 4690 304.80136 L 4695 296.8971 L 4700 285.88226 L 4705 296.49533 L 4710 324.51215 L 4715 297.72925 L 4720 299.6086 L 4725 327.31323 L 4730 290.40033 L 4735 290.20004 L 4740 316.14618 L 4745 305.1611 L 4750 299.99847 L 4755 307.9834 L 4760 306.9281 L 4765 298.9541 L 4770 304.26434 L 4775 336.26126 L 4780 306.40494 L 4785 306.3528 L 4790 335.72726 L 4795 305.18683 L 4800 304.06052 L 4805 321.7177 L 4810 315.53696 L 4815 305.31567 L 4820 320.14297 L 4825 326.8445 L 4830 305.54803 L 4835 314.7028 L 4840 329.84286 L 4845 304.90402 L 4850 304.69885 L 4855 335.65134 L 4860 316.87726 L 4865 314.10382 L 4870 336.07007 L 4875 321.1893 L 4880 314.0186 L 4885 318.89917 L 4890 333.92908 L 4895 324.0607 L 4900 332.9752 L 4905 331.17795 L 4910 313.5937 L 4915 313.8484 L 4920 343.14474 L 4925 329.9125 L 4930 329.53033 L 4935 347.42856 L 4940 325.48877 L 4945 313.6785 L 4950 322.84866 L 4955 341.32727 L 4960 334.04 L 4965 340.66522 L 4970 328.19186 L 4975 311.66556 L 4980 317.9117 L 4985 345.6026 L 4990 337.85162 L 4995 336.91583 L 5000 331.67642 L 5005 313.22714 L 5010 313.08658 L 5015 327.88654 L 5019.9995 347.28943 L 5025 335.68927 L 5030 353.54282 L 5035 323.38852 L 5040 322.37543 L 5044.9995 328.2599 L 5050 344.62402 L 5055 349.99924 L 5060 358.13135 L 5065 332.5395 L 5070.0005 327.38046 L 5075 328.08997 L 5080 352.29822 L 5085 350.53928 L 5090 360.59467 L 5095.0005 336.18472 L 5100 331.42673 L 5105 330.05197 L 5110 338.28525 L 5115 359.61548 L 5120 359.25436 L 5125 348.4604 L 5130 341.66113 L 5134.9995 334.07706 L 5140 347.8014 L 5145 350.14594 L 5150 360.10205 L 5155 344.62402 L 5159.9995 342.4618 L 5165 341.49396 L 5170 343.23068 L 5175 346.0533 L 5180 348.6978 L 5184.9995 347.5215 L 5190 347.33575 L 5195 348.36572 L 5200 347.94193 L 5205 343.05893 L 5210.0005 338.00894 L 5215 341.45227 L 5220 354.60605 L 5225 359.49475 L 5230 344.5359 L 5235.0005 334.00302 L 5240 336.4147 L 5245 336.56845 L 5250 350.39142 L 5255 362.1108 L 5260 352.6063 L 5265 334.52298 L 5270 331.605 L 5274.9995 342.5467 L 5280 363.82495 L 5285 358.89642 L 5290 334.6723 L 5295 325.12918 L 5299.9995 330.19174 L 5305 338.32483 L 5310 367.52356 L 5315 345.334 L 5320 328.87512 L 5325.0005 325.85007 L 5330 324.99884 L 5335 351.08527 L 5340 349.32025 L 5345 337.10965 L 5350.0005 324.86874 L 5355 318.62863 L 5360 330.61267 L 5365 346.0986 L 5370 353.1243 L 5375 315.65265 L 5380 314.13223 L 5385 321.06546 L 5389.9995 336.29962 L 5395 342.12332 L 5400 312.44287 L 5405 306.2746 L 5410 319.04977 L 5414.9995 324.09286 L 5420 323.67587 L 5425 301.72235 L 5430 296.77878 L 5435 304.443 L 5440.0005 306.06647 L 5445 306.69235 L 5450 292.4693 L 5455 283.48978 L 5460 288.10757 L 5465.0005 293.19833 L 5470 293.0841 L 5475 288.7202 L 5480 268.748 L 5485 277.3842 L 5490.0005 282.01135 L 5495 282.19772 L 5500 279.59436 L 5505 268.56213 L 5510 278.36374 L 5515 279.31085 L 5520 282.82114 L 5525 274.4913 L 5529.9995 266.35168 L 5535 288.54486 L 5540 273.44522 L 5545 282.03204 L 5550 259.19934 L 5554.9995 257.09955 L 5560 284.66922 L 5565 265.02472 L 5570 289.22598 L 5575 251.79892 L 5580.0005 251.50269 L 5585 267.8027 L 5590 261.80716 L 5595 288.93982 L 5600 255.43488 L 5605.0005 260.61096 L 5610 265.00662 L 5615 264.84393 L 5620 259.14734 L 5625 249.80252 L 5630 285.77533 L 5635 259.40756 L 5640 277.62335 L 5644.9995 248.60445 L 5650 249.3805 L 5655 263.335 L 5660 260.96173 L 5665 270.31995 L 5669.9995 249.44534 L 5675 264.862 L 5680 264.4111 L 5685 267.0293 L 5690 255.23236 L 5695.0005 253.65565 L 5700 271.28366 L 5705 264.95236 L 5710 277.1852 L 5715 254.79453 L 5720.0005 267.0844 L 5725 266.3334 L 5730 270.33878 L 5735 259.61615 L 5740 259.54657 L 5745 274.4135 L 5750 270.86707 L 5755 278.2835 L 5759.9995 259.5118 L 5765 277.424 L 5770 269.1952 L 5775 270.65924 L 5780 258.33502 L 5784.9995 262.9247 L 5790 270.0942 L 5795 269.6814 L 5800 263.1386 L 5805 259.99927 L 5809.9995 283.53168 L 5815 271.28366 L 5820 271.39755 L 5825 264.97046 L 5830 275.0958 L 5835.0005 274.90048 L 5840 270.64038 L 5845 267.96902 L 5850 268.48782 L 5855 279.63495 L 5860.0005 270.82925 L 5865 278.4441 L 5870 271.18887 L 5875 287.5417 L 5880 269.12054 L 5885 269.1019 L 5890 274.51077 L 5895 282.19772 L 5899.9995 276.5903 L 5905 270.39526 L 5910 281.45395 L 5915 282.28064 L 5920 281.14542 L 5924.9995 272.54172 L 5930 284.54227 L 5935 283.7835 L 5940 283.7625 L 5945 278.2434 L 5950.0005 278.90692 L 5955 284.58456 L 5960 292.78766 L 5965 284.22552 L 5970 281.5982 L 5975.0005 286.89227 L 5980 312.8341 L 5985 287.4766 L 5990 292.76486 L 5995 289.4687 L 6000 315.2772 L 6005 286.63354 L 6010 300.7336 L 6014.9995 295.64963 L 6020 309.15836 L 6025 288.47913 L 6030 300.2674 L 6035 300.8813 L 6039.9995 313.62195 L 6045 294.1397 L 6050 298.66458 L 6055 306.64 L 6060 312.89017 L 6065.0005 301.69748 L 6070 304.7245 L 6075 316.43784 L 6080 322.06152 L 6085 303.35062 L 6090.0005 311.80386 L 6095 316.61334 L 6100 326.18005 L 6105 296.9445 L 6110 308.27573 L 6115.0005 313.00235 L 6120 320.8801 L 6125 296.33035 L 6130 305.49637 L 6135 308.78287 L 6140 320.94186 L 6145 292.17453 L 6150 302.64587 L 6154.9995 302.12064 L 6160 321.81134 L 6165 290.0445 L 6170 299.5843 L 6175 303.62888 L 6179.9995 317.85226 L 6185 293.81732 L 6190 302.44543 L 6195 315.39255 L 6200 327.71744 L 6205.0005 304.08597 L 6210 310.10394 L 6215 325.3905 L 6220 331.21344 L 6225 310.75815 L 6230.0005 316.26273 L 6235 338.60254 L 6240 332.5757 L 6245 317.20096 L 6250 329.4611 L 6255 355.4749 L 6260 332.14255 L 6265 328.02206 L 6269.9995 337.14844 L 6275 374.3251 L 6280 337.2262 L 6285 342.41934 L 6290 359.67596 L 6294.9995 342.75955 L 6300 328.97818 L 6305 340.01047 L 6310 367.82568 L 6315 332.21454 L 6320.0005 329.66907 L 6325 346.37106 L 6330 361.98215 L 6335 333.4504 L 6340 331.46237 L 6345.0005 366.9276 L 6350 355.9712 L 6355 341.41055 L 6360 341.32727 L 6365 379.38892 L 6370 350.7867 L 6375 347.28943 L 6380 353.1243 L 6384.9995 371.61533 L 6390 350.93573 L 6395 350.6381 L 6400 365.69556 L 6405 359.1347 L 6409.9995 358.7186 L 6415 365.69556 L 6420 353.80637 L 6425 348.6027 L 6430 349.17593 L 6434.9995 378.23654 L 6440 346.9662 L 6445 345.4234 L 6450 354.01825 L 6455 370.10715 L 6460.0005 345.02225 L 6465 344.404 L 6470 359.79727 L 6475 368.9848 L 6480 354.12454 L 6485.0005 352.19595 L 6490 365.27115 L 6495 362.1753 L 6500 362.04645 L 6505 365.13086 L 6510 366.34222 L 6515 366.63364 L 6520 367.4485 L 6524.9995 365.41208 L 6530 366.19745 L 6535 370.93536 L 6540 380.1123 L 6545 362.4344 L 6549.9995 361.918 L 6555 374.42038 L 6560 378.8049 L 6565 368.59366 L 6570 366.85385 L 6575.0005 378.8049 L 6580 389.40244 L 6585 384.37476 L 6590 368.13065 L 6595 369.06363 L 6600.0005 372.48892 L 6605 377.46497 L 6610 366.78027 L 6615 364.57513 L 6620 369.3809 L 6625 379.8683 L 6630 378.01334 L 6635 371.96152 L 6639.9995 383.61212 L 6645 386.37823 L 6650 378.01334 L 6655 378.69 L 6660 382.32208 L 6664.9995 381.51196 L 6670 377.79236 L 6675 382.60046 L 6680 374.0414 L 6685 377.57355 L 6690.0005 380.6096 L 6695 384.0653 L 6700 373.4831 L 6705 373.66788 L 6710 378.12466 L 6715.0005 384.0653 L 6720 378.57574 L 6725 371.0195 L 6730 369.70154 L 6735 376.4064 L 6740.0005 381.24973 L 6745 368.43857 L 6750 367.82568 L 6755 373.11734 L 6760 375.99606 L 6765 363.289 L 6770 363.82495 L 6775 370.02557 L 6779.9995 378.4621 L 6785 367.52356 L 6790 366.05328 L 6795 371.70148 L 6800 375.19568 L 6804.9995 371.52945 L 6810 368.7495 L 6815 372.40033 L 6820 376.4064 L 6825 371.87457 L 6830.0005 370.51834 L 6835 372.9363 L 6840 374.42038 L 6845 370.68445 L 6850 371.52945 L 6855.0005 373.85397 L 6860 369.30127 L 6865 365.48273 L 6870 366.70688 L 6875 374.2302 L 6880 367.0015 L 6885 363.9602 L 6890 364.7825 L 6894.9995 374.99963 L 6900 365.98145 L 6905 362.62985 L 6910 363.556 L 6915 371.52945 L 6919.9995 364.5063 L 6925 361.85394 L 6930 362.8264 L 6935 368.82776 L 6940 367.2988 L 6945.0005 362.76077 L 6950 363.69025 L 6955 366.4876 L 6960 365.41208 L 6965 361.47183 L 6970.0005 362.1108 L 6975 364.2322 L 6980 363.35556 L 6985 360.10205 L 6990 360.3476 L 6995 363.42224 L 7000 365.20096 L 7005 361.47183 L 7009.9995 361.34528 L 7015 363.69025 L 7020 366.78027 L 7025 363.69025 L 7030 363.42224 L 7034.9995 365.34155 L 7040 366.9276 L 7045 366.19745 L 7050 366.34222 L 7055 370.18896 L 7059.9995 367.52356 L 7065 366.63364 L 7070 367.67426 L 7075 372.9363 L 7080 367.2242 L 7085.0005 365.7668 L 7090 366.78027 L 7095 374.42038 L 7100 368.9848 L 7105 366.4876 L 7110.0005 366.70688 L 7115 374.0414 L 7120 369.62106 L 7125 367.2242 L 7130 367.0756 L 7135 370.18896 L 7140 369.3809 L 7145 367.52356 L 7149.9995 366.9276 L 7155 367.2242 L 7160 366.9276 L 7165 366.9276 L 7170 366.19745 L 7174.9995 366.4876 L 7180 366.63364 L 7185 366.78027 L 7190 367.37354 L 7195 367.0756 L 7200.0005 366.34222 L 7205 367.0756 L 7210 367.52356 L 7215 369.06363 L 7220 367.2242 L 7225.0005 367.52356 L 7230 368.43857 L 7235 370.8515 L 7240 370.02557 L 7245 370.3532 L 7250 373.66788 L 7255 375.39334 L 7260 373.4831 L 7264.9995 373.85397 L 7270 376.51013 L 7275 377.2493 L 7280 374.80505 L 7285 374.80505 L 7289.9995 377.2493 L 7295 381.24973 L 7300 378.34903 L 7305 377.9026 L 7310 379.74738 L 7315.0005 384.37476 L 7320 383.1711 L 7325 380.9911 L 7330 380.73593 L 7335 381.51196 L 7340.0005 382.04797 L 7345 380.48407 L 7350 380.73593 L 7355 383.9128 L 7360 386.74155 L 7365.0005 385.67926 L 7370 386.37823 L 7375 390.62485 L 7380 392.34525 L 7385 390.11774 L 7390 390.62485 L 7395 389.8737 L 7400 389.40244 L 7404.9995 392.03268 L 7410 388.51782 L 7415 386.02435 L 7420 385.85074 L 7425 385.85074 L 7429.9995 383.4638 L 7435 382.18448 L 7440 382.46072 L 7445 383.3168 L 7450 384.2193 L 7455.0005 383.3168 L 7460 383.02664 L 7465 382.46072 L 7470 382.18448 L 7475 382.32208 L 7480.0005 381.91248 L 7485 381.38037 L 7490 381.38037 L 7495 381.24973 L 7500 381.24973 L 7505 380.1123 L 7510 380.1123 L 7515 381.11993 L 7519.9995 382.18448 L 7525 380.1123 L 7530 379.62717 L 7535 379.8683 L 7540 379.15332 L 7544.9995 376.92963 L 7550 375.89453 L 7555 375.7935 L 7560 374.42038 L 7565 372.312 L 7570.0005 371.70148 L 7575 371.96152 L 7580 370.93536 L 7585 369.62106 L 7590 368.9848 L 7595.0005 368.7495 L 7600 368.05414 L 7605 367.59882 L 7610 367.59882 L 7615 367.2988 L 7620 367.0015 L 7625 367.2988 L 7630 367.74988 L 7634.9995 367.59882 L 7640 367.0015 L 7645 367.14984 L 7650 367.74988 L 7655 368.67148 L 7659.9995 368.51602 L 7665 368.51602 L 7670 369.46075 L 7675 370.68445 L 7680 370.93536 L 7684.9995 370.6013 L 7690 371.27335 L 7695 372.48892 L 7700 372.48892 L 7705 372.22397 L 7710.0005 372.1362 L 7715 372.22397 L 7720 371.35846 L 7725 370.93536 L 7730 370.76785 L 7735.0005 370.93536 L 7740 369.78223 L 7745 368.9848 L 7750 368.9848 L 7755 368.3613 L 7760 366.63364 L 7765 366.19745 L 7770 365.98145 L 7774.9995 365.27115 L 7780 364.164 L 7785 363.89252 L 7790 364.164 L 7795 364.028 L 7799.9995 363.35556 L 7805 363.22256 L 7810 363.22256 L 7815 362.8264 L 7820 362.30463 L 7825.0005 361.918 L 7830 361.918 L 7835 362.04645 L 7840 361.918 L 7845 362.04645 L 7850.0005 362.1753 L 7855 362.69525 L 7860 363.35556 L 7865 363.62305 L 7870 364.164 L 7875 365.27115 L 7880 365.27115 L 7885 365.83823 L 7889.9995 366.1253 L 7895 366.85385 L 7900 367.74988 L 7905 367.82568 L 7910 368.05414 L 7914.9995 368.3613 L 7920 368.20734 L 7925 367.90164 L 7930 367.59882 L 7935 367.4485 L 7940.0005 367.14984 L 7945 366.41483 L 7950 366.05328 L 7955 365.98145 L 7960 366.56052 L 7965.0005 366.41483 L 7970 366.41483 L 7975 366.70688 L 7980 366.41483 L 7985 366.1253 L 7990.0005 365.98145 L 7995 366.1253 L 8000 366.26974 L 8005 366.1253 L 8010 366.1253 L 8015 366.26974 L 8020 366.41483 L 8025 366.63364 L 8029.9995 367.14984 L 8035 368.28424 L 8040 369.46075 L 8045 370.02557 L 8050 370.93536 L 8054.9995 371.7879 L 8060 372.40033 L 8065 373.4831 L 8070 374.3251 L 8075 375.09747 L 8080.0005 375.29434 L 8085 376.30316 L 8090 377.14224 L 8095 378.01334 L 8100 378.69 L 8105.0005 378.9204 L 8110 378.4621 L 8115 377.57355 L 8120 377.14224 L 8125 376.92963 L 8130 376.51013 L 8135 376.30316 L 8140 376.30316 L 8144.9995 376.71893 L 8150 376.92963 L 8155 377.35687 L 8160 377.35687 L 8165 377.9026 L 8169.9995 378.23654 L 8175 377.79236 L 8180 377.57355 L 8185 377.57355 L 8190 377.57355 L 8195 377.57355 L 8200 377.35687 L 8205 378.01334 L 8210 378.9204 L 8215 379.38892 L 8220 379.62717 L 8225 380.86307 L 8230 382.18448 L 8235 383.61212 L 8240 384.5318 L 8245 385.17657 L 8250 385.85074 L 8255 387.306 L 8260 388.10016 L 8265 389.8737 L 8270 390.889 L 8275 393.37076 L 8280 395.05887 L 8285 395.5805 L 8290 393.01218 L 8295 392.34525 L 8300 392.34525 L 8305 393.01218 L 8310 392.34525 L 8315 389.6354 L 8320 386.74155 L 8325 387.49982 L 8330 373.11734 L 8335 372.22397 L 8340 375.99606 L 8345 377.68268 L 8350 375.69284 L 8355 375.5926 L 8360 373.66788 L 8365 375.19568 L 8370 375.99606 L 8375 374.42038 L 8380 373.66788 L 8385 373.29956 L 8390 372.57782 L 8395 372.22397 L 8400 371.35846 L 8405 371.0195 L 8410 370.8515 L 8415 370.51834 L 8420 369.86313 L 8425 369.22186 L 8430 369.22186 L 8435 368.59366 L 8440 368.28424 L 8445 367.97778 L 8450 367.82568 L 8455 367.82568 L 8460 367.74988 L 8465 367.2242 L 8470 367.37354 L 8475 367.52356 L 8480 367.97778 L 8485 368.43857 L 8490 368.43857 L 8495 368.59366 L 8500 368.59366 L 8505 368.43857 L 8510 368.28424 L 8515 367.82568 L 8520 367.82568 L 8525 367.67426 L 8530 367.52356 L 8535 367.52356 L 8540 367.37354 L 8545 367.52356 L 8550 367.0756 L 8555 366.4876 L 8560 365.48273 L 8565 364.64413 L 8570 364.09592 L 8575 363.9602 L 8580 363.48904 L 8585 363.15622 L 8590 362.62985 L 8595 362.49942 L 8600 362.1108 L 8605 361.72614 L 8610 361.21918 L 8615 361.09348 L 8620 360.71875 L 8625 360.47092 L 8630 360.3476 L 8635 360.22464 L 8640 360.22464 L 8645 360.4092 L 8650 360.59467 L 8655 360.96817 L 8660 361.34528 L 8665 361.47183 L 8670 361.5988 L 8675 361.72614 L 8680 361.85394 L 8685 361.98215 L 8690 362.2399 L 8695 362.62985 L 8700 363.15622 L 8705 363.289 L 8710 363.42224 L 8715 363.42224 L 8720 363.289 L 8725 363.15622 L 8730 363.289 L 8735 363.289 L 8740 363.42224 L 8745 363.556 L 8750 363.69025 L 8755 363.9602 L 8760 364.3005 L 8765 364.5063 L 8770 364.7825 L 8775 365.0609 L 8780 365.20096 L 8785 365.48273 L 8790 365.48273 L 8795 365.34155 L 8800 365.48273 L 8805 365.7668 L 8810 365.7668 L 8815 365.7668 L 8820 365.90976 L 8825 366.19745 L 8830 366.34222 L 8835 366.63364 L 8840 366.9276 L 8845 367.2242 L 8850 367.67426 L 8855 368.13065 L 8860 368.90616 L 8865 369.06363 L 8870 369.22186 L 8875 369.70154 L 8880 370.02557 L 8885 370.02557 L 8890 370.3532 L 8895 370.51834 L 8900 370.68445 L 8905 371.0195 L 8910 371.0195 L 8915 371.18848 L 8920 371.18848 L 8925 371.35846 L 8930 371.70148 L 8935 371.52945 L 8940 372.0487 L 8945 372.75647 L 8950 373.39117 L 8955 373.9475 L 8960 374.51602 L 8965 374.80505 L 8970 374.80505 L 8975 374.99963 L 8980 374.80505 L 8985 374.80505 L 8990 375.19568 L 8995 375.69284 L 9000 376.20035 L 9005 376.6143 L 9010 377.68268 L 9015 378.34903 L 9020 379.03656 L 9025 379.5077 L 9030 379.98993 L 9035 380.48407 L 9040 377.57355 L 9045 377.2493 L 9050 379.5077 L 9055 383.76178 L 9060 384.69046 L 9065 385.34222 L 9070 385.67926 L 9075 386.02435 L 9080 386.02435 L 9085 386.37823 L 9090 386.37823 L 9095 386.74155 L 9100 388.30713 L 9105 389.1745 L 9110 391.16104 L 9115 393.7499 L 9120 395.05887 L 9125 394.15356 L 9130 394.15356 L 9135 391.4417 L 9140 390.62485 L 9145 389.40244 L 9150 388.51782 L 9155 387.306 L 9160 387.49982 L 9165 386.55865 L 9170 385.50977 L 9175 385.17657 L 9180 384.0653 L 9185 383.02664 L 9190 383.61212 L 9195 383.3168 L 9200 383.02664 L 9205 383.02664 L 9210 383.1711 L 9215 382.74136 L 9220 382.46072 L 9225 382.46072 L 9230 382.46072 L 9235 382.18448 L 9240 382.46072 L 9245 382.46072 L 9250 382.46072 L 9255 382.74136 L 9260 383.3168 L 9265 383.61212 L 9270 383.9128 L 9275 383.9128 L 9280 383.9128 L 9285 383.9128 L 9290 383.61212 L 9295 382.74136 L 9300 382.18448 L 9305 381.38037 L 9310 381.38037 L 9315 381.38037 L 9320 381.11993 L 9325 380.73593 L 9330 380.6096 L 9335 380.6096 L 9340 380.35938 L 9345 380.1123 L 9350 380.1123 L 9355 379.62717 L 9360 379.8683 L 9365 379.38892 L 9370 379.62717 L 9375 379.38892 L 9380 379.38892 L 9385 379.38892 L 9390 379.62717 L 9395 379.62717 L 9400 379.62717 L 9405 379.62717 L 9410 379.38892 L 9415 379.38892 L 9420 379.38892 L 9425 379.27078 L 9430 379.38892 L 9435 379.38892 L 9440 379.62717 L 9445 379.8683 L 9450 380.1123 L 9455 380.1123 L 9460 379.8683 L 9465 379.62717 L 9470 379.62717 L 9475 379.38892 L 9480 379.15332 L 9485 379.15332 L 9490 378.9204 L 9495 379.38892 L 9500 379.38892 L 9505 379.38892 L 9510 379.15332 L 9515 378.9204 L 9520 378.9204 L 9525 378.9204 L 9530 378.69 L 9535 378.4621 L 9540 378.4621 L 9545 378.69 L 9550 378.8049 L 9555 379.15332 L 9560 379.15332 L 9565 379.38892 L 9570 379.62717 L 9575 379.8683 L 9580 380.1123 L 9585 380.35938 L 9590 380.6096 L 9595 380.86307 L 9600 381.38037 L 9605 381.6445 L 9610 381.91248 L 9615 382.18448 L 9620 382.46072 L 9625 382.46072 L 9630 382.74136 L 9635 383.1711 L 9640 383.3168 L 9645 383.61212 L 9650 383.61212 L 9655 383.9128 L 9660 383.9128 L 9665 383.61212 L 9670 383.3168 L 9675 382.74136 L 9680 382.74136 L 9685 382.74136 L 9690 382.74136 L 9695 382.46072 L 9700 382.46072 L 9705 382.46072 L 9710 382.46072 L 9715 382.46072 L 9720 382.74136 L 9725 382.74136 L 9730 383.02664 L 9735 382.74136 L 9740 383.02664 L 9745 383.3168 L 9750 383.3168 L 9755 383.61212 L 9760 383.61212 L 9765 383.61212 L 9770 383.61212 L 9775 383.61212 L 9780 383.61212 L 9785 383.61212 L 9790 384.0653 L 9795 384.2193 L 9800 384.85077 L 9805 385.17657 L 9810 385.50977 L 9815 385.50977 L 9820 385.85074 L 9825 386.20016 L 9830 386.02435 L 9835 386.02435 L 9840 386.20016 L 9845 386.55865 L 9850 386.55865 L 9855 386.92697 L 9860 386.92697 L 9865 387.306 L 9870 387.6967 L 9875 387.89676 L 9880 388.10016 L 9885 388.10016 L 9890 388.10016 L 9895 388.51782 L 9900 388.51782 L 9905 388.95126 L 9910 389.40244 L 9915 389.8737 L 9920 389.8737 L 9925 389.8737 L 9930 390.36795 L 9935 390.36795 L 9940 390.889 L 9945 390.889 L 9950 390.889 L 9955 391.16104 L 9960 392.03268 L 9965 392.03268 L 9970 392.03268 L 9975 392.6711 L 9980 393.37076 L 9985 393.37076 L 9990 393.37076 L 9995 393.7499 L 10000 394.15356 L 10005 394.15356 L 10010 394.15356 L 10015 394.15356 L 10020 395.05887 L 10025.001 395.05887 L 10030 395.05887 L 10035 395.05887 L 10039.999 395.05887 L 10045 395.05887 L 10050 395.05887 L 10055 395.05887 L 10060 395.05887 L 10065 395.05887 L 10070 395.05887 L 10075.001 396.1726 L 10080 396.1726 L 10085 396.1726 L 10089.999 396.1726 L 10095 396.1726 L 10100 396.87494 L 10105 396.87494 L 10110 396.87494 L 10115 396.87494 L 10120 396.87494 L 10125 396.87494 L 10130 396.87494 L 10135 396.87494 L 10140.001 396.87494 L 10145 396.87494 L 10150 396.87494 L 10154.999 396.87494 L 10160 396.87494 L 10165 396.87494 L 10170 396.87494 L 10175 396.87494 L 10180 396.87494 L 10185 396.87494 L 10190.001 396.87494 L 10195 396.87494 L 10200 397.79025 L 10000 400 Z" fill="white" stroke="black" stroke-width="0"/>
                </svg>
            